<?xml version="1.0" standalone="no"?>
<!DOCTYPE svg PUBLIC "-//W3C//DTD SVG 20010904//EN"
 "http://www.w3.org/TR/2001/REC-SVG-20010904/DTD/svg10.dtd">
<svg version="1.0" xmlns="http://www.w3.org/2000/svg"
 width="77.000000pt" height="77.000000pt" viewBox="0 0 77.000000 77.000000"
 preserveAspectRatio="xMidYMid meet">
<metadata>
Created by potrace 1.14, written by Peter Selinger 2001-2017
</metadata>
<g transform="translate(0.000000,77.000000) scale(0.100000,-0.100000)"
fill="#000000" stroke="none">
<path d="M272 745 c-100 -30 -193 -113 -240 -213 -23 -49 -27 -70 -27 -152 1
-87 3 -100 34 -162 40 -81 109 -149 189 -186 49 -23 70 -26 152 -26 86 0 101
3 161 32 79 38 149 109 187 190 23 49 27 70 27 152 0 87 -3 101 -32 160 -37
75 -78 121 -141 161 -89 56 -210 73 -310 44z"/>
</g>
</svg>
