<svg width="108" height="31" viewBox="0 0 108 31" fill="none" xmlns="http://www.w3.org/2000/svg">
<path d="M48.3438 17H47.0312V15.0312C47.0312 14.7122 47.0244 14.4388 47.0107 14.2109C47.0016 13.9785 46.9629 13.7803 46.8945 13.6162C46.8307 13.4521 46.7282 13.32 46.5869 13.2197C46.4456 13.1195 46.2451 13.042 45.9854 12.9873C45.7256 12.9326 45.3952 12.8962 44.9941 12.8779C44.5977 12.8551 44.1077 12.8438 43.5244 12.8438H37.625V17H36.3125V6.5H43.7432C44.5452 6.5 45.2197 6.52962 45.7666 6.58887C46.318 6.64355 46.7715 6.72786 47.127 6.8418C47.487 6.95573 47.7627 7.09701 47.9541 7.26562C48.1501 7.43424 48.2913 7.63249 48.3779 7.86035C48.4691 8.08822 48.5215 8.34342 48.5352 8.62598C48.5534 8.90853 48.5625 9.2207 48.5625 9.5625C48.5625 10 48.5306 10.3851 48.4668 10.7178C48.4076 11.0459 48.305 11.3262 48.1592 11.5586C48.0133 11.791 47.8197 11.9779 47.5781 12.1191C47.3366 12.2559 47.0335 12.3516 46.6689 12.4062C47.0335 12.4609 47.3252 12.5566 47.5439 12.6934C47.7627 12.8301 47.9313 13.0078 48.0498 13.2266C48.1683 13.4453 48.2458 13.7051 48.2822 14.0059C48.3232 14.3066 48.3438 14.6484 48.3438 15.0312V17ZM37.625 11.75H43.7432C44.3265 11.75 44.8164 11.7409 45.2129 11.7227C45.6139 11.6999 45.9443 11.6611 46.2041 11.6064C46.4639 11.5518 46.6644 11.4743 46.8057 11.374C46.9469 11.2738 47.0495 11.1416 47.1133 10.9775C47.1816 10.8135 47.2204 10.6175 47.2295 10.3896C47.2432 10.1572 47.25 9.88151 47.25 9.5625C47.25 9.26628 47.2432 9.01107 47.2295 8.79688C47.2204 8.58268 47.1816 8.40267 47.1133 8.25684C47.0495 8.111 46.9469 7.99479 46.8057 7.9082C46.6644 7.82161 46.4639 7.75553 46.2041 7.70996C45.9443 7.65983 45.6139 7.62793 45.2129 7.61426C44.8164 7.60059 44.3265 7.59375 43.7432 7.59375H37.625V11.75ZM49.77 6.5H51.0825V17H49.77V6.5ZM63.0088 14.5938H54.6963L53.3838 17H51.8525L57.9775 6.5H59.7275L65.8525 17H64.3213L63.0088 14.5938ZM62.3525 13.5L58.8525 7.375L55.3525 13.5H62.3525ZM66.6225 17V6.5H75.3793C76.0356 6.5 76.5642 6.55469 76.9653 6.66406C77.3663 6.76888 77.6739 6.92611 77.8881 7.13574C78.1069 7.34082 78.2527 7.59831 78.3256 7.9082C78.3985 8.2181 78.435 8.57357 78.435 8.97461C78.435 9.26628 78.4099 9.52376 78.3598 9.74707C78.3097 9.97038 78.2436 10.1641 78.1616 10.3281C78.0795 10.4922 77.9861 10.6312 77.8813 10.7451C77.7765 10.8545 77.6694 10.9456 77.56 11.0186C77.3048 11.1917 77.0131 11.2897 76.685 11.3125C77.0952 11.3353 77.4597 11.4355 77.7787 11.6133C77.9155 11.6908 78.0476 11.7887 78.1752 11.9072C78.3074 12.0212 78.4236 12.1647 78.5239 12.3379C78.6287 12.5065 78.713 12.707 78.7768 12.9395C78.8406 13.1673 78.8725 13.4316 78.8725 13.7324C78.8725 14.097 78.8543 14.432 78.8178 14.7373C78.7859 15.0381 78.7176 15.3092 78.6127 15.5508C78.5079 15.7923 78.3575 16.0042 78.1616 16.1865C77.9656 16.3688 77.7036 16.5215 77.3754 16.6445C77.0519 16.763 76.6531 16.8519 76.1791 16.9111C75.7097 16.9704 75.1469 17 74.4907 17H66.6225ZM74.0532 15.9062C74.5636 15.9062 75.0056 15.8994 75.3793 15.8857C75.753 15.8675 76.0698 15.8333 76.3295 15.7832C76.5893 15.7285 76.7989 15.6533 76.9584 15.5576C77.1179 15.4574 77.241 15.3275 77.3276 15.168C77.4187 15.0039 77.4802 14.8057 77.5121 14.5732C77.544 14.3408 77.56 14.0605 77.56 13.7324C77.56 13.4772 77.544 13.2562 77.5121 13.0693C77.4802 12.8779 77.4187 12.7184 77.3276 12.5908C77.241 12.4587 77.1179 12.3538 76.9584 12.2764C76.7989 12.1943 76.5893 12.1305 76.3295 12.085C76.0698 12.0394 75.753 12.0098 75.3793 11.9961C75.0056 11.9779 74.5636 11.9688 74.0532 11.9688H67.935V15.9062H74.0532ZM74.0532 10.875C74.4998 10.875 74.8849 10.8659 75.2084 10.8477C75.532 10.8294 75.8077 10.7952 76.0356 10.7451C76.2634 10.695 76.448 10.6266 76.5893 10.54C76.7306 10.4489 76.8399 10.3327 76.9174 10.1914C76.9995 10.0501 77.0541 9.88151 77.0815 9.68555C77.1088 9.48503 77.1225 9.24805 77.1225 8.97461C77.1225 8.68294 77.0906 8.44596 77.0268 8.26367C76.963 8.08138 76.8491 7.94238 76.685 7.84668C76.5209 7.74642 76.2976 7.68034 76.0151 7.64844C75.7371 7.61198 75.3793 7.59375 74.9418 7.59375H67.935V10.875H74.0532ZM88.3993 6.28125C89.2014 6.28125 89.8759 6.33138 90.4228 6.43164C90.9742 6.52734 91.4277 6.67546 91.7831 6.87598C92.1386 7.07194 92.412 7.32031 92.6034 7.62109C92.7948 7.92188 92.9338 8.27507 93.0204 8.68066C93.1116 9.08626 93.164 9.54427 93.1777 10.0547C93.1959 10.5651 93.205 11.1302 93.205 11.75C93.205 12.3698 93.1959 12.9349 93.1777 13.4453C93.164 13.9557 93.1116 14.4137 93.0204 14.8193C92.9338 15.2249 92.7948 15.5781 92.6034 15.8789C92.412 16.1797 92.1386 16.4303 91.7831 16.6309C91.4277 16.8268 90.9742 16.9727 90.4228 17.0684C89.8759 17.1686 89.2014 17.2188 88.3993 17.2188H84.4482C83.6461 17.2188 82.9693 17.1686 82.4179 17.0684C81.871 16.9727 81.4198 16.8268 81.0644 16.6309C80.7089 16.4303 80.4332 16.1797 80.2372 15.8789C80.0458 15.5781 79.9045 15.2249 79.8134 14.8193C79.7268 14.4137 79.6767 13.9557 79.663 13.4453C79.6493 12.9349 79.6425 12.3698 79.6425 11.75C79.6425 11.1302 79.6493 10.5651 79.663 10.0547C79.6767 9.54427 79.7268 9.08626 79.8134 8.68066C79.9045 8.27507 80.0458 7.92188 80.2372 7.62109C80.4332 7.32031 80.7089 7.07194 81.0644 6.87598C81.4198 6.67546 81.871 6.52734 82.4179 6.43164C82.9693 6.33138 83.6461 6.28125 84.4482 6.28125H88.3993ZM88.3993 16.125C88.9781 16.125 89.4657 16.109 89.8622 16.0771C90.2633 16.0407 90.5937 15.9701 90.8534 15.8652C91.1132 15.7604 91.3137 15.61 91.455 15.4141C91.5963 15.2181 91.6988 14.9583 91.7626 14.6348C91.8264 14.3112 91.8629 13.9147 91.872 13.4453C91.8857 12.9714 91.8925 12.4062 91.8925 11.75C91.8925 11.0938 91.8857 10.5309 91.872 10.0615C91.8629 9.58757 91.8264 9.1888 91.7626 8.86523C91.6988 8.54167 91.5963 8.2819 91.455 8.08594C91.3137 7.88997 91.1132 7.73958 90.8534 7.63477C90.5982 7.52995 90.2701 7.46159 89.8691 7.42969C89.4726 7.39323 88.9827 7.375 88.3993 7.375H84.4482C83.8648 7.375 83.3726 7.39323 82.9716 7.42969C82.5751 7.46159 82.247 7.52995 81.9872 7.63477C81.7275 7.73958 81.5269 7.88997 81.3857 8.08594C81.2444 8.2819 81.1419 8.54167 81.078 8.86523C81.0142 9.1888 80.9778 9.58757 80.9687 10.0615C80.9596 10.5309 80.955 11.0938 80.955 11.75C80.955 12.4062 80.9596 12.9714 80.9687 13.4453C80.9823 13.9147 81.0211 14.3112 81.0849 14.6348C81.1487 14.9583 81.2489 15.2181 81.3857 15.4141C81.5269 15.61 81.7275 15.7604 81.9872 15.8652C82.247 15.9701 82.5751 16.0407 82.9716 16.0771C83.3726 16.109 83.8648 16.125 84.4482 16.125H88.3993ZM105.131 6.5H106.662L100.975 17H99.225L93.5375 6.5H95.0687L100.1 16.125L105.131 6.5Z" fill="#008CCF"/>
<circle cx="24.5" cy="14.5" r="8.5" fill="#008CCF"/>
<path d="M2.774 21.444C2.166 21.2667 1.74167 21.0893 1.501 20.912C1.273 20.7347 1.159 20.513 1.159 20.247C1.159 20.0443 1.216 19.7593 1.33 19.392C1.444 19.0247 1.60867 18.594 1.824 18.1C2.052 17.5933 2.318 17.036 2.622 16.428C2.93867 15.82 3.29333 15.1677 3.686 14.471C3.35667 14.4583 3.059 14.452 2.793 14.452C2.53967 14.4393 2.33067 14.433 2.166 14.433C2.242 14.243 2.45733 14.0783 2.812 13.939C3.16667 13.7997 3.63533 13.6793 4.218 13.578C4.712 12.7547 5.23767 11.9693 5.795 11.222C6.365 10.4747 6.935 9.79067 7.505 9.17C8.075 8.53667 8.645 7.98567 9.215 7.517C9.785 7.03567 10.3297 6.65567 10.849 6.377C10.8617 6.28833 10.868 6.21233 10.868 6.149C10.8807 6.08567 10.887 6.04133 10.887 6.016C11.0643 6.016 11.2987 6.06033 11.59 6.149C11.894 6.23767 12.1853 6.34533 12.464 6.472C12.7553 6.59867 13.0087 6.73167 13.224 6.871C13.452 6.99767 13.5787 7.10533 13.604 7.194C13.186 7.92867 12.7743 9.03067 12.369 10.5C11.9637 11.9567 11.628 13.7047 11.362 15.744C11.2987 16.2507 11.2417 16.827 11.191 17.473C11.153 18.119 11.134 18.841 11.134 19.639C11.134 19.9177 11.134 20.2027 11.134 20.494C11.134 20.7853 11.1467 21.0893 11.172 21.406C11.1467 21.4187 11.1213 21.425 11.096 21.425C11.0707 21.425 11.02 21.425 10.944 21.425C10.7667 21.425 10.5577 21.3933 10.317 21.33C10.089 21.2793 9.861 21.2097 9.633 21.121C9.41767 21.045 9.22767 20.9563 9.063 20.855C8.911 20.7537 8.816 20.665 8.778 20.589C8.76533 20.4243 8.759 20.2597 8.759 20.095C8.759 19.943 8.759 19.7783 8.759 19.601C8.759 18.8157 8.78433 18.0177 8.835 17.207C8.89833 16.3963 8.99967 15.5603 9.139 14.699C8.96167 14.6863 8.72733 14.6737 8.436 14.661C8.14467 14.6357 7.81533 14.6167 7.448 14.604C7.09333 14.5913 6.707 14.5787 6.289 14.566C5.88367 14.5407 5.48467 14.5217 5.092 14.509C4.788 15.079 4.503 15.649 4.237 16.219C3.971 16.7763 3.743 17.34 3.553 17.91C3.33767 18.518 3.16033 19.126 3.021 19.734C2.89433 20.342 2.812 20.912 2.774 21.444ZM10.108 10.025C10.1587 9.84767 10.2157 9.607 10.279 9.303C10.355 8.98633 10.4247 8.657 10.488 8.315C10.1713 8.429 9.81667 8.638 9.424 8.942C9.044 9.246 8.645 9.626 8.227 10.082C7.82167 10.5253 7.40367 11.032 6.973 11.602C6.555 12.1593 6.14967 12.7547 5.757 13.388C6.821 13.2993 8.03067 13.2423 9.386 13.217C9.48733 12.685 9.595 12.1593 9.709 11.64C9.83567 11.108 9.96867 10.5697 10.108 10.025Z" fill="#008CCF"/>
<path d="M20.6611 16.7207C20.6611 16.7305 20.6465 16.75 20.6172 16.7793C20.5911 16.8086 20.5586 16.8395 20.5195 16.8721C20.4837 16.9014 20.4479 16.9307 20.4121 16.96C20.3763 16.9893 20.3486 17.0088 20.3291 17.0186C20.3031 17.0381 20.2705 17.056 20.2314 17.0723C20.1956 17.0853 20.1647 17.0918 20.1387 17.0918C20.0833 17.0918 20.0052 17.056 19.9043 16.9844C19.8066 16.9128 19.6992 16.8216 19.582 16.7109C19.4681 16.597 19.3509 16.4733 19.2305 16.3398C19.1133 16.2031 19.0059 16.0729 18.9082 15.9492C18.8138 15.8223 18.7357 15.71 18.6738 15.6123C18.612 15.5114 18.5811 15.4414 18.5811 15.4023C18.5843 15.3893 18.5892 15.3796 18.5957 15.373C18.6022 15.3665 18.6104 15.3584 18.6201 15.3486C18.6299 15.3389 18.6396 15.3275 18.6494 15.3145C18.6624 15.2982 18.6755 15.2738 18.6885 15.2412C18.7145 15.1794 18.7617 15.124 18.8301 15.0752C18.9017 15.0264 18.9684 14.9808 19.0303 14.9385C19.3851 14.6943 19.7464 14.4697 20.1143 14.2646C20.4821 14.0596 20.8548 13.8643 21.2324 13.6787C21.2454 13.6755 21.2682 13.6657 21.3008 13.6494C21.3366 13.6331 21.3724 13.6169 21.4082 13.6006C21.444 13.5811 21.4766 13.5648 21.5059 13.5518C21.5352 13.5387 21.5531 13.5322 21.5596 13.5322C21.5791 13.5322 21.597 13.5485 21.6133 13.5811C21.6296 13.6136 21.6377 13.6331 21.6377 13.6396C21.6377 13.6592 21.6247 13.6982 21.5986 13.7568C21.5758 13.8122 21.5498 13.8691 21.5205 13.9277C21.5173 13.9375 21.4782 13.9684 21.4033 14.0205C21.3285 14.0726 21.2292 14.1377 21.1055 14.2158C20.985 14.2907 20.8451 14.3786 20.6855 14.4795C20.5293 14.5771 20.3665 14.6797 20.1973 14.7871C20.028 14.8913 19.8571 14.9971 19.6846 15.1045C19.5153 15.2087 19.3574 15.3079 19.2109 15.4023C19.3021 15.5 19.4014 15.596 19.5088 15.6904C19.6195 15.7848 19.7318 15.8809 19.8457 15.9785C19.9596 16.0729 20.0736 16.1689 20.1875 16.2666C20.3047 16.3643 20.4186 16.4652 20.5293 16.5693C20.5488 16.5856 20.5749 16.6084 20.6074 16.6377C20.6432 16.667 20.6611 16.6947 20.6611 16.7207ZM26.5236 11.0713C26.5334 11.1299 26.5269 11.1885 26.5041 11.2471C26.4813 11.3057 26.4439 11.3805 26.3918 11.4717C26.216 11.7581 26.0321 12.0397 25.84 12.3164C25.648 12.5898 25.4592 12.8682 25.2736 13.1514C25.1206 13.3825 24.9465 13.651 24.7512 13.957C24.5591 14.263 24.3557 14.5869 24.1408 14.9287C23.9292 15.2705 23.7144 15.6204 23.4963 15.9785C23.2814 16.3366 23.0747 16.6816 22.8762 17.0137C22.6809 17.3424 22.5002 17.6501 22.3342 17.9365C22.1714 18.2197 22.038 18.4606 21.9338 18.6592C21.9012 18.7178 21.8736 18.7666 21.8508 18.8057C21.8312 18.8447 21.8117 18.8757 21.7922 18.8984C21.7759 18.9245 21.758 18.9424 21.7385 18.9521C21.7189 18.9619 21.6945 18.9684 21.6652 18.9717C21.6262 18.9782 21.5871 18.9782 21.548 18.9717C21.5122 18.9684 21.4781 18.957 21.4455 18.9375C21.413 18.918 21.3837 18.8887 21.3576 18.8496C21.3348 18.8138 21.3202 18.7666 21.3137 18.708C21.3104 18.695 21.3186 18.6673 21.3381 18.625C21.3576 18.5827 21.3804 18.5355 21.4064 18.4834C21.4325 18.4346 21.4585 18.3841 21.4846 18.332C21.5139 18.2799 21.5367 18.2393 21.5529 18.21C21.6831 17.9788 21.8443 17.6908 22.0363 17.3457C22.2316 16.9974 22.4449 16.6149 22.676 16.1982C22.9104 15.7816 23.1594 15.3421 23.423 14.8799C23.6867 14.4144 23.9553 13.9489 24.2287 13.4834C24.5021 13.0146 24.7756 12.5573 25.049 12.1113C25.3225 11.6654 25.5845 11.252 25.8352 10.8711C25.8417 10.8548 25.8531 10.8337 25.8693 10.8076C25.8889 10.7783 25.91 10.7507 25.9328 10.7246C25.9556 10.6953 25.9768 10.6709 25.9963 10.6514C26.0191 10.6318 26.0386 10.6221 26.0549 10.6221C26.0712 10.6188 26.1037 10.6318 26.1525 10.6611C26.2014 10.6904 26.2518 10.7279 26.3039 10.7734C26.3592 10.8158 26.4081 10.8646 26.4504 10.9199C26.4927 10.972 26.5171 11.0225 26.5236 11.0713ZM26.9662 13.8984C26.9662 13.8887 26.9792 13.8691 27.0053 13.8398C27.0346 13.8105 27.0671 13.7812 27.1029 13.752C27.142 13.7194 27.1794 13.6885 27.2152 13.6592C27.2543 13.6299 27.282 13.6104 27.2982 13.6006C27.3243 13.5811 27.3552 13.5648 27.391 13.5518C27.4301 13.5387 27.4626 13.5322 27.4887 13.5322C27.544 13.5322 27.6205 13.568 27.7182 13.6396C27.8191 13.7113 27.9265 13.804 28.0404 13.918C28.1576 14.0286 28.2748 14.1523 28.392 14.2891C28.5124 14.4225 28.6199 14.5527 28.7143 14.6797C28.8119 14.8034 28.8917 14.9157 28.9535 15.0166C29.0154 15.1143 29.0463 15.1826 29.0463 15.2217C29.043 15.2347 29.0382 15.2445 29.0316 15.251C29.0251 15.2542 29.017 15.2607 29.0072 15.2705C28.9975 15.2803 28.9861 15.2933 28.973 15.3096C28.9633 15.3226 28.9519 15.3454 28.9389 15.3779C28.9128 15.4398 28.864 15.4951 28.7924 15.5439C28.724 15.5928 28.6589 15.6383 28.5971 15.6807C28.2423 15.9248 27.8809 16.1494 27.5131 16.3545C27.1452 16.5596 26.7742 16.7549 26.3998 16.9404C26.3835 16.9469 26.3575 16.9583 26.3217 16.9746C26.2891 16.9909 26.2549 17.0072 26.2191 17.0234C26.1833 17.0397 26.1508 17.056 26.1215 17.0723C26.0922 17.0853 26.0743 17.0918 26.0678 17.0918C26.0482 17.0918 26.0303 17.0755 26.0141 17.043C25.9978 17.0072 25.9896 16.986 25.9896 16.9795C25.9896 16.96 26.001 16.9225 26.0238 16.8672C26.0499 16.8086 26.0775 16.75 26.1068 16.6914C26.1101 16.6816 26.1492 16.6523 26.224 16.6035C26.2989 16.5514 26.3965 16.488 26.517 16.4131C26.6374 16.335 26.7758 16.2471 26.932 16.1494C27.0915 16.0485 27.2559 15.946 27.4252 15.8418C27.5945 15.7376 27.7637 15.6335 27.933 15.5293C28.1023 15.4219 28.2602 15.3226 28.4066 15.2314C28.3187 15.1305 28.2211 15.0329 28.1137 14.9385C28.0062 14.8441 27.8939 14.7497 27.7768 14.6553C27.6628 14.5576 27.5473 14.46 27.4301 14.3623C27.3161 14.2614 27.2055 14.1572 27.098 14.0498C27.0785 14.0335 27.0508 14.0107 27.015 13.9814C26.9825 13.9521 26.9662 13.9245 26.9662 13.8984Z" fill="white"/>
<path d="M36.224 22.1C36.1973 22.0893 36.1787 22.076 36.168 22.06C36.16 22.044 36.156 22.0227 36.156 21.996V21.82C36.156 21.7933 36.16 21.772 36.168 21.756C36.1787 21.74 36.1973 21.7267 36.224 21.716L37.992 20.912C38.008 20.9067 38.02 20.904 38.028 20.904C38.06 20.904 38.076 20.9227 38.076 20.96V21.276C38.076 21.3053 38.0707 21.3267 38.06 21.34C38.052 21.3533 38.0347 21.3653 38.008 21.376L36.78 21.904L38.008 22.432C38.0347 22.4427 38.052 22.4547 38.06 22.468C38.0707 22.4813 38.076 22.5027 38.076 22.532V22.856C38.076 22.8933 38.06 22.912 38.028 22.912C38.012 22.912 38 22.9093 37.992 22.904L36.224 22.1ZM40.7985 23C40.7585 23 40.7278 22.9933 40.7065 22.98C40.6878 22.964 40.6745 22.9373 40.6665 22.9L40.0345 20.376C40.0318 20.368 40.0305 20.356 40.0305 20.34C40.0305 20.3 40.0558 20.28 40.1065 20.28H40.4305C40.4705 20.28 40.4985 20.2867 40.5145 20.3C40.5305 20.3133 40.5411 20.3347 40.5465 20.364L40.9465 22.124L41.4265 20.572C41.4371 20.54 41.4491 20.5187 41.4625 20.508C41.4785 20.4947 41.5038 20.488 41.5385 20.488H41.7225C41.7571 20.488 41.7811 20.4947 41.7945 20.508C41.8105 20.5187 41.8238 20.54 41.8345 20.572L42.3185 22.124L42.7145 20.364C42.7198 20.3347 42.7305 20.3133 42.7465 20.3C42.7651 20.2867 42.7931 20.28 42.8305 20.28H43.1585C43.2091 20.28 43.2345 20.3 43.2345 20.34C43.2345 20.356 43.2331 20.368 43.2305 20.376L42.5945 22.9C42.5838 22.9373 42.5678 22.964 42.5465 22.98C42.5278 22.9933 42.4998 23 42.4625 23H42.2465C42.2091 23 42.1798 22.9933 42.1585 22.98C42.1398 22.964 42.1251 22.9373 42.1145 22.9L41.6305 21.3L41.1505 22.9C41.1398 22.9373 41.1238 22.964 41.1025 22.98C41.0838 22.9933 41.0558 23 41.0185 23H40.7985ZM46.3059 23.06C46.0979 23.06 45.9099 23.0253 45.7419 22.956C45.5739 22.884 45.4392 22.7747 45.3379 22.628C45.2392 22.4787 45.1899 22.2933 45.1899 22.072C45.1899 21.728 45.2819 21.4667 45.4659 21.288C45.6499 21.1093 45.9112 21.02 46.2499 21.02C46.5859 21.02 46.8392 21.1067 47.0099 21.28C47.1832 21.4533 47.2699 21.704 47.2699 22.032C47.2699 22.1253 47.2272 22.172 47.1419 22.172H45.6739C45.6739 22.348 45.7352 22.484 45.8579 22.58C45.9806 22.6733 46.1512 22.72 46.3699 22.72C46.5806 22.72 46.7699 22.672 46.9379 22.576C46.9566 22.5653 46.9712 22.56 46.9819 22.56C47.0006 22.56 47.0152 22.572 47.0259 22.596L47.1219 22.768C47.1299 22.784 47.1339 22.7987 47.1339 22.812C47.1339 22.8307 47.1219 22.848 47.0979 22.864C46.9886 22.9307 46.8699 22.98 46.7419 23.012C46.6166 23.044 46.4712 23.06 46.3059 23.06ZM46.8059 21.876C46.8059 21.7107 46.7592 21.5813 46.6659 21.488C46.5752 21.3947 46.4379 21.348 46.2539 21.348C46.0672 21.348 45.9232 21.396 45.8219 21.492C45.7232 21.588 45.6739 21.716 45.6739 21.876H46.8059ZM50.2445 23.06C50.0632 23.06 49.8859 23.036 49.7125 22.988C49.5392 22.9373 49.4019 22.8747 49.3005 22.8V20.428C49.3005 20.3773 49.3112 20.34 49.3325 20.316C49.3565 20.292 49.3952 20.28 49.4485 20.28H49.6525C49.7059 20.28 49.7445 20.292 49.7685 20.316C49.7925 20.34 49.8045 20.3773 49.8045 20.428V21.208C49.8739 21.1467 49.9645 21.1 50.0765 21.068C50.1885 21.036 50.3085 21.02 50.4365 21.02C50.7379 21.02 50.9699 21.1027 51.1325 21.268C51.2952 21.4333 51.3765 21.6653 51.3765 21.964C51.3765 22.3107 51.2805 22.58 51.0885 22.772C50.8992 22.964 50.6179 23.06 50.2445 23.06ZM50.2205 22.696C50.4419 22.696 50.6045 22.6373 50.7085 22.52C50.8152 22.4 50.8685 22.2187 50.8685 21.976C50.8685 21.7733 50.8259 21.6253 50.7405 21.532C50.6579 21.436 50.5179 21.388 50.3205 21.388C50.1845 21.388 50.0645 21.4227 49.9605 21.492C49.8565 21.5587 49.8045 21.6573 49.8045 21.788V22.6C49.8499 22.6293 49.9112 22.6533 49.9885 22.672C50.0659 22.688 50.1432 22.696 50.2205 22.696ZM56.7559 23C56.7025 23 56.6639 22.988 56.6399 22.964C56.6185 22.94 56.6079 22.904 56.6079 22.856V20.428C56.6079 20.3773 56.6185 20.34 56.6399 20.316C56.6639 20.292 56.7025 20.28 56.7559 20.28H57.5559C58.0065 20.28 58.3505 20.388 58.5879 20.604C58.8279 20.82 58.9479 21.1653 58.9479 21.64C58.9479 22.5467 58.4839 23 57.5559 23H56.7559ZM57.5879 22.612C57.8705 22.612 58.0825 22.5387 58.2239 22.392C58.3679 22.2453 58.4399 21.9947 58.4399 21.64C58.4399 21.2853 58.3679 21.036 58.2239 20.892C58.0825 20.7453 57.8705 20.672 57.5879 20.672H57.1199V22.612H57.5879ZM62.0143 23.06C61.8063 23.06 61.6183 23.0253 61.4503 22.956C61.2823 22.884 61.1477 22.7747 61.0463 22.628C60.9477 22.4787 60.8983 22.2933 60.8983 22.072C60.8983 21.728 60.9903 21.4667 61.1743 21.288C61.3583 21.1093 61.6197 21.02 61.9583 21.02C62.2943 21.02 62.5477 21.1067 62.7183 21.28C62.8917 21.4533 62.9783 21.704 62.9783 22.032C62.9783 22.1253 62.9357 22.172 62.8503 22.172H61.3823C61.3823 22.348 61.4437 22.484 61.5663 22.58C61.689 22.6733 61.8597 22.72 62.0783 22.72C62.289 22.72 62.4783 22.672 62.6463 22.576C62.665 22.5653 62.6797 22.56 62.6903 22.56C62.709 22.56 62.7237 22.572 62.7343 22.596L62.8303 22.768C62.8383 22.784 62.8423 22.7987 62.8423 22.812C62.8423 22.8307 62.8303 22.848 62.8063 22.864C62.697 22.9307 62.5783 22.98 62.4503 23.012C62.325 23.044 62.1797 23.06 62.0143 23.06ZM62.5143 21.876C62.5143 21.7107 62.4677 21.5813 62.3743 21.488C62.2837 21.3947 62.1463 21.348 61.9623 21.348C61.7757 21.348 61.6317 21.396 61.5303 21.492C61.4317 21.588 61.3823 21.716 61.3823 21.876H62.5143ZM65.885 23C65.8476 23 65.8196 22.9933 65.801 22.98C65.7823 22.964 65.7636 22.9373 65.745 22.9L64.941 21.192C64.933 21.176 64.929 21.16 64.929 21.144C64.929 21.1253 64.9343 21.1107 64.945 21.1C64.9583 21.0867 64.9756 21.08 64.997 21.08H65.329C65.3636 21.08 65.389 21.0867 65.405 21.1C65.421 21.1107 65.4356 21.132 65.449 21.164L65.985 22.412L66.521 21.164C66.5343 21.1347 66.549 21.1133 66.565 21.1C66.5836 21.0867 66.6103 21.08 66.645 21.08H66.977C66.9983 21.08 67.0143 21.0867 67.025 21.1C67.0383 21.1107 67.045 21.1253 67.045 21.144C67.045 21.16 67.041 21.176 67.033 21.192L66.229 22.9C66.2103 22.9373 66.1916 22.964 66.173 22.98C66.1543 22.9933 66.1263 23 66.089 23H65.885ZM69.8139 23.06C69.6059 23.06 69.4179 23.0253 69.2499 22.956C69.0819 22.884 68.9472 22.7747 68.8459 22.628C68.7472 22.4787 68.6979 22.2933 68.6979 22.072C68.6979 21.728 68.7899 21.4667 68.9739 21.288C69.1579 21.1093 69.4192 21.02 69.7579 21.02C70.0939 21.02 70.3472 21.1067 70.5179 21.28C70.6912 21.4533 70.7779 21.704 70.7779 22.032C70.7779 22.1253 70.7352 22.172 70.6499 22.172H69.1819C69.1819 22.348 69.2432 22.484 69.3659 22.58C69.4885 22.6733 69.6592 22.72 69.8779 22.72C70.0885 22.72 70.2779 22.672 70.4459 22.576C70.4645 22.5653 70.4792 22.56 70.4899 22.56C70.5085 22.56 70.5232 22.572 70.5339 22.596L70.6299 22.768C70.6379 22.784 70.6419 22.7987 70.6419 22.812C70.6419 22.8307 70.6299 22.848 70.6059 22.864C70.4965 22.9307 70.3779 22.98 70.2499 23.012C70.1245 23.044 69.9792 23.06 69.8139 23.06ZM70.3139 21.876C70.3139 21.7107 70.2672 21.5813 70.1739 21.488C70.0832 21.3947 69.9459 21.348 69.7619 21.348C69.5752 21.348 69.4312 21.396 69.3299 21.492C69.2312 21.588 69.1819 21.716 69.1819 21.876H70.3139ZM72.9565 23C72.9032 23 72.8645 22.988 72.8405 22.964C72.8192 22.94 72.8085 22.904 72.8085 22.856V20.428C72.8085 20.3773 72.8192 20.34 72.8405 20.316C72.8645 20.292 72.9032 20.28 72.9565 20.28H73.1685C73.2218 20.28 73.2605 20.292 73.2845 20.316C73.3085 20.34 73.3205 20.3773 73.3205 20.428V22.856C73.3205 22.904 73.3085 22.94 73.2845 22.964C73.2632 22.988 73.2245 23 73.1685 23H72.9565ZM76.4369 23.06C76.0902 23.06 75.8222 22.9693 75.6329 22.788C75.4462 22.604 75.3529 22.3547 75.3529 22.04C75.3529 21.7253 75.4462 21.4773 75.6329 21.296C75.8222 21.112 76.0902 21.02 76.4369 21.02C76.7835 21.02 77.0515 21.112 77.2409 21.296C77.4302 21.4773 77.5249 21.7253 77.5249 22.04C77.5249 22.3547 77.4302 22.604 77.2409 22.788C77.0515 22.9693 76.7835 23.06 76.4369 23.06ZM76.4369 22.684C76.6262 22.684 76.7702 22.6293 76.8689 22.52C76.9675 22.4107 77.0169 22.2507 77.0169 22.04C77.0169 21.832 76.9675 21.6747 76.8689 21.568C76.7702 21.4587 76.6262 21.404 76.4369 21.404C76.2502 21.404 76.1062 21.4587 76.0049 21.568C75.9062 21.6747 75.8569 21.832 75.8569 22.04C75.8569 22.248 75.9062 22.408 76.0049 22.52C76.1062 22.6293 76.2502 22.684 76.4369 22.684ZM79.7053 23.808C79.6519 23.808 79.6133 23.796 79.5893 23.772C79.5679 23.748 79.5573 23.712 79.5573 23.664V21.272C79.6586 21.2 79.7933 21.14 79.9613 21.092C80.1319 21.044 80.3026 21.02 80.4733 21.02C81.2466 21.02 81.6333 21.3613 81.6333 22.044C81.6333 22.3587 81.5479 22.6067 81.3773 22.788C81.2093 22.9693 80.9773 23.06 80.6813 23.06C80.4119 23.06 80.2053 22.9827 80.0613 22.828V23.664C80.0613 23.7147 80.0493 23.7507 80.0253 23.772C80.0039 23.796 79.9653 23.808 79.9093 23.808H79.7053ZM80.5613 22.696C80.7506 22.696 80.8919 22.6387 80.9853 22.524C81.0786 22.4093 81.1253 22.244 81.1253 22.028C81.1253 21.796 81.0706 21.632 80.9613 21.536C80.8519 21.4373 80.6839 21.388 80.4573 21.388C80.2893 21.388 80.1573 21.4133 80.0613 21.464V22.252C80.0613 22.388 80.1093 22.496 80.2053 22.576C80.3013 22.656 80.4199 22.696 80.5613 22.696ZM83.818 23C83.7647 23 83.726 22.988 83.702 22.964C83.678 22.94 83.666 22.904 83.666 22.856V21.188C83.666 21.148 83.6727 21.12 83.686 21.104C83.6993 21.088 83.7273 21.08 83.77 21.08H83.982C84.0113 21.08 84.0327 21.0867 84.046 21.1C84.0593 21.1107 84.0673 21.1307 84.07 21.16L84.082 21.328C84.1593 21.2293 84.2473 21.1533 84.346 21.1C84.4473 21.0467 84.5673 21.02 84.706 21.02C84.8233 21.02 84.9247 21.0467 85.01 21.1C85.098 21.1507 85.162 21.2267 85.202 21.328C85.3487 21.1227 85.5607 21.02 85.838 21.02C86.0273 21.02 86.1767 21.0773 86.286 21.192C86.398 21.3067 86.454 21.4773 86.454 21.704V22.856C86.454 22.904 86.442 22.94 86.418 22.964C86.3967 22.988 86.358 23 86.302 23H86.126C86.0727 23 86.034 22.988 86.01 22.964C85.986 22.94 85.974 22.904 85.974 22.856V21.732C85.974 21.6093 85.9473 21.5213 85.894 21.468C85.8433 21.4147 85.766 21.388 85.662 21.388C85.5527 21.388 85.4633 21.424 85.394 21.496C85.3273 21.568 85.294 21.6653 85.294 21.788V22.856C85.294 22.904 85.282 22.94 85.258 22.964C85.234 22.988 85.1953 23 85.142 23H84.978C84.9247 23 84.886 22.988 84.862 22.964C84.838 22.94 84.826 22.904 84.826 22.856V21.712C84.826 21.6 84.802 21.5187 84.754 21.468C84.7087 21.4147 84.6353 21.388 84.534 21.388C84.4193 21.388 84.326 21.4267 84.254 21.504C84.182 21.5787 84.146 21.6773 84.146 21.8V22.856C84.146 22.904 84.134 22.94 84.11 22.964C84.0887 22.988 84.05 23 83.994 23H83.818ZM89.5803 23.06C89.3723 23.06 89.1843 23.0253 89.0163 22.956C88.8483 22.884 88.7136 22.7747 88.6123 22.628C88.5136 22.4787 88.4643 22.2933 88.4643 22.072C88.4643 21.728 88.5563 21.4667 88.7403 21.288C88.9243 21.1093 89.1856 21.02 89.5243 21.02C89.8603 21.02 90.1136 21.1067 90.2843 21.28C90.4576 21.4533 90.5443 21.704 90.5443 22.032C90.5443 22.1253 90.5016 22.172 90.4163 22.172H88.9483C88.9483 22.348 89.0096 22.484 89.1323 22.58C89.2549 22.6733 89.4256 22.72 89.6443 22.72C89.8549 22.72 90.0443 22.672 90.2123 22.576C90.2309 22.5653 90.2456 22.56 90.2563 22.56C90.2749 22.56 90.2896 22.572 90.3003 22.596L90.3963 22.768C90.4043 22.784 90.4083 22.7987 90.4083 22.812C90.4083 22.8307 90.3963 22.848 90.3723 22.864C90.2629 22.9307 90.1443 22.98 90.0163 23.012C89.8909 23.044 89.7456 23.06 89.5803 23.06ZM90.0803 21.876C90.0803 21.7107 90.0336 21.5813 89.9403 21.488C89.8496 21.3947 89.7123 21.348 89.5283 21.348C89.3416 21.348 89.1976 21.396 89.0963 21.492C88.9976 21.588 88.9483 21.716 88.9483 21.876H90.0803ZM92.7269 23C92.6736 23 92.6349 22.988 92.6109 22.964C92.5869 22.94 92.5749 22.904 92.5749 22.856V21.188C92.5749 21.148 92.5816 21.12 92.5949 21.104C92.6082 21.088 92.6362 21.08 92.6789 21.08H92.9069C92.9656 21.08 92.9962 21.1067 92.9989 21.16L93.0069 21.32C93.1882 21.12 93.4482 21.02 93.7869 21.02C94.0029 21.02 94.1762 21.0787 94.3069 21.196C94.4402 21.3107 94.5069 21.484 94.5069 21.716V22.856C94.5069 22.904 94.4949 22.94 94.4709 22.964C94.4496 22.988 94.4122 23 94.3589 23H94.1469C94.0936 23 94.0549 22.988 94.0309 22.964C94.0069 22.94 93.9949 22.904 93.9949 22.856V21.748C93.9949 21.6173 93.9642 21.5253 93.9029 21.472C93.8442 21.416 93.7482 21.388 93.6149 21.388C93.4736 21.388 93.3496 21.4267 93.2429 21.504C93.1389 21.5787 93.0869 21.676 93.0869 21.796V22.856C93.0869 22.904 93.0749 22.94 93.0509 22.964C93.0296 22.988 92.9909 23 92.9349 23H92.7269ZM97.4817 23.06C97.2551 23.06 97.0844 22.9973 96.9697 22.872C96.8551 22.7467 96.7977 22.5733 96.7977 22.352V21.456H96.5697C96.5164 21.456 96.4804 21.4467 96.4617 21.428C96.4457 21.4093 96.4377 21.3747 96.4377 21.324V21.216C96.4377 21.1653 96.4457 21.1307 96.4617 21.112C96.4804 21.0907 96.5164 21.08 96.5697 21.08H96.7977V20.86C96.7977 20.804 96.8071 20.752 96.8257 20.704C96.8471 20.6533 96.8791 20.5907 96.9217 20.516C96.9377 20.484 96.9524 20.464 96.9657 20.456C96.9817 20.4453 97.0084 20.44 97.0457 20.44H97.1777C97.2257 20.44 97.2591 20.452 97.2777 20.476C97.2991 20.4973 97.3097 20.5307 97.3097 20.576V21.08H97.7817C97.8351 21.08 97.8697 21.0907 97.8857 21.112C97.9044 21.1307 97.9137 21.1653 97.9137 21.216V21.324C97.9137 21.3747 97.9044 21.4093 97.8857 21.428C97.8697 21.4467 97.8351 21.456 97.7817 21.456H97.3097V22.336C97.3097 22.4587 97.3311 22.548 97.3737 22.604C97.4164 22.6573 97.4897 22.684 97.5937 22.684C97.6551 22.684 97.7071 22.6773 97.7497 22.664C97.7924 22.648 97.8391 22.6227 97.8897 22.588C97.9031 22.5773 97.9177 22.572 97.9337 22.572C97.9497 22.572 97.9657 22.584 97.9817 22.608L98.0977 22.8C98.1084 22.8133 98.1137 22.828 98.1137 22.844C98.1137 22.8627 98.1004 22.8813 98.0737 22.9C97.9084 23.0067 97.7111 23.06 97.4817 23.06ZM100.042 23C100.005 23 99.9858 22.984 99.9858 22.952C99.9858 22.936 99.9898 22.9187 99.9978 22.9L101.046 20.348C101.065 20.3027 101.097 20.28 101.142 20.28H101.518C101.555 20.28 101.574 20.2973 101.574 20.332C101.574 20.348 101.57 20.364 101.562 20.38L100.514 22.936C100.498 22.9787 100.465 23 100.414 23H100.042ZM103.572 22.912C103.54 22.912 103.524 22.8933 103.524 22.856V22.556C103.524 22.5267 103.528 22.5053 103.536 22.492C103.547 22.4787 103.566 22.4667 103.592 22.456L104.836 21.904L103.592 21.352C103.566 21.3413 103.547 21.3293 103.536 21.316C103.528 21.3027 103.524 21.2813 103.524 21.252V20.96C103.524 20.9227 103.54 20.904 103.572 20.904L103.604 20.912L105.376 21.716C105.4 21.7293 105.418 21.744 105.428 21.76C105.439 21.7733 105.444 21.7933 105.444 21.82V21.996C105.444 22.0227 105.439 22.044 105.428 22.06C105.418 22.0733 105.4 22.0867 105.376 22.1L103.604 22.904L103.572 22.912Z" fill="#18658A"/>
</svg>
